<svg width="48" height="49" viewBox="0 0 48 49" fill="none" xmlns="http://www.w3.org/2000/svg">
<path d="M47.5 24.3333C47.5 37.5026 36.9722 48.1667 24 48.1667C11.0278 48.1667 0.5 37.5026 0.5 24.3333C0.5 11.164 11.0278 0.5 24 0.5C36.9722 0.5 47.5 11.164 47.5 24.3333Z" fill="white" stroke="#969696"/>
<g clip-path="url(#clip0_211_4)">
<path d="M31.5636 28.0796C28.0873 26.8088 26.9766 25.7363 26.9766 23.4406C26.9766 23.1874 27.0125 22.9964 27.0739 22.8369C27.3467 22.1277 28.1233 22.0489 28.5037 19.9888C28.6972 18.9417 29.6347 19.9717 29.814 17.5819C29.814 16.6296 29.3022 16.3926 29.3022 16.3926C29.3022 16.3926 29.5622 14.9828 29.6641 13.8982C29.7905 12.5465 28.8858 9.05426 24.061 9.05426C24.0401 9.05426 24.0205 9.05543 24.0001 9.05572C23.9796 9.05537 23.9599 9.05426 23.9389 9.05426C19.1141 9.05426 18.2095 12.5465 18.3358 13.8982C18.4377 14.9828 18.6978 16.3926 18.6978 16.3926C18.6978 16.3926 18.1861 16.6296 18.1861 17.5819C18.3655 19.9717 19.303 18.9416 19.4963 19.9888C19.8767 22.0489 20.6536 22.1277 20.9263 22.8369C20.9875 22.9963 21.0235 23.1874 21.0235 23.4406C21.0235 25.7363 19.9126 26.8088 16.4363 28.0796C12.9494 29.3544 11.3811 30.6545 11.3811 31.5412C11.3811 32.4266 11.3811 37.3489 11.3811 37.3489H23.9913H24.0087H36.619C36.619 37.3489 36.619 32.4266 36.619 31.5412C36.619 30.6545 35.0509 29.3544 31.5636 28.0796Z" fill="black"/>
</g>
<defs>
<clipPath id="clip0_211_4">
<rect width="27.907" height="28.2946" fill="white" transform="translate(10.0465 9.05426)"/>
</clipPath>
</defs>
</svg>
