<svg width="38" height="38" viewBox="0 0 38 38" fill="none" xmlns="http://www.w3.org/2000/svg">
<path d="M37.6873 4.79605C37.6647 4.77482 33.2011 0.518004 33.2011 0.518004C33.0305 0.354277 32.854 0.185059 32.5245 0.185059H14.5546C14.0297 0.185059 13.6027 0.612039 13.6027 1.13691V4.05987L7.26922 5.14554C6.76157 5.23461 6.42016 5.72044 6.50811 6.22758L6.82955 8.10175C4.77095 8.79451 2.65742 9.50864 0.617072 10.2416C0.134947 10.4178 -0.118065 10.9539 0.0539741 11.4389L4.11263 22.7214C4.19427 22.9484 4.40824 23.0898 4.63646 23.0898C4.69895 23.0898 4.76263 23.0792 4.82483 23.0568C5.11413 22.9527 5.26428 22.6339 5.16022 22.3445L1.16161 11.229C3.08388 10.5407 5.07458 9.86712 7.02007 9.21229L8.93276 20.3633L11.1336 33.2055C11.2131 33.6588 11.6116 33.9814 12.0614 33.9814C12.1123 33.9814 12.164 33.9772 12.2158 33.9687L18.1767 32.9457L22.8347 32.1473L15.8291 34.6653L10.3046 36.6516L6.01418 24.7181C5.9102 24.4288 5.59144 24.2786 5.30206 24.3826C5.01275 24.4866 4.86261 24.8054 4.96659 25.0947L9.31788 37.1979C9.45704 37.5785 9.8176 37.8151 10.1987 37.8151C10.304 37.8151 10.411 37.797 10.5152 37.7589L16.2056 35.713L29.1266 31.0688L31.5951 30.6457H37.048C37.5729 30.6457 37.9999 30.2177 37.9999 29.6917V5.42327C38 5.0901 37.8192 4.92014 37.6873 4.79605ZM36.2125 4.92786H33.427L33.358 4.92816C33.2246 4.92905 32.9124 4.93135 32.8332 4.85268C32.8149 4.83449 32.7936 4.77378 32.7936 4.66104L32.7871 1.66149L36.2125 4.92786ZM36.8867 29.5323H14.716V18.6839C14.716 18.3765 14.4667 18.1273 14.1593 18.1273C13.8519 18.1273 13.6027 18.3765 13.6027 18.6839V29.6915C13.6027 30.2175 14.0297 30.6455 14.5546 30.6455H25.0055L17.9885 31.8483L12.2008 32.8416L10.03 20.1751L7.63505 6.21229L13.6026 5.18933V16.1011C13.6026 16.4085 13.8518 16.6578 14.1592 16.6578C14.4667 16.6578 14.7159 16.4085 14.7159 16.1011V1.29827H31.673L31.6803 4.6623C31.6803 5.07006 31.8043 5.39989 32.0489 5.64273C32.4246 6.01583 32.9558 6.04181 33.2856 6.04181C33.3139 6.04181 33.3408 6.04159 33.3659 6.04144L36.8867 6.04122V29.5323Z" fill="black"/>
<path d="M17.3992 8.82825C17.3992 9.13566 17.6484 9.38489 17.9558 9.38489H33.871C34.1784 9.38489 34.4276 9.13566 34.4276 8.82825C34.4276 8.52083 34.1784 8.27161 33.871 8.27161H17.9558C17.6484 8.27161 17.3992 8.52083 17.3992 8.82825Z" fill="black"/>
<path d="M33.871 12.2261H17.9558C17.6484 12.2261 17.3992 12.4753 17.3992 12.7827C17.3992 13.0901 17.6484 13.3394 17.9558 13.3394H33.871C34.1784 13.3394 34.4276 13.0901 34.4276 12.7827C34.4276 12.4753 34.1784 12.2261 33.871 12.2261Z" fill="black"/>
<path d="M33.871 16.1807H17.9558C17.6484 16.1807 17.3992 16.4299 17.3992 16.7373C17.3992 17.0447 17.6484 17.2939 17.9558 17.2939H33.871C34.1784 17.2939 34.4276 17.0447 34.4276 16.7373C34.4276 16.4299 34.1784 16.1807 33.871 16.1807Z" fill="black"/>
<path d="M33.871 20.1353H17.9558C17.6484 20.1353 17.3992 20.3845 17.3992 20.6919C17.3992 20.9993 17.6484 21.2485 17.9558 21.2485H33.871C34.1784 21.2485 34.4276 20.9993 34.4276 20.6919C34.4276 20.3845 34.1784 20.1353 33.871 20.1353Z" fill="black"/>
<path d="M33.871 24.0898H17.9558C17.6484 24.0898 17.3992 24.3391 17.3992 24.6465C17.3992 24.9539 17.6484 25.2031 17.9558 25.2031H33.871C34.1784 25.2031 34.4276 24.9539 34.4276 24.6465C34.4276 24.3391 34.1784 24.0898 33.871 24.0898Z" fill="black"/>
</svg>
